<svg width="140" height="100" viewBox="0 0 140 100" fill="none" xmlns="http://www.w3.org/2000/svg">
  <!-- Subtle Background Glow -->
  <ellipse cx="70" cy="85" rx="50" ry="8" fill="#E2E8F0" fill-opacity="0.5"/>

  <!-- Document Board -->
  <rect x="36" y="14" width="68" height="72" rx="8" fill="#FFFFFF" stroke="#E2E8F0" stroke-width="1.5"/>
  
  <!-- Clip -->
  <rect x="54" y="9" width="32" height="10" rx="3" fill="#F8FAFC" stroke="#CBD5E1" stroke-width="1.5"/>
  <circle cx="70" cy="14" r="2" fill="#94A3B8"/>

  <!-- Checklist Row 1 -->
  <rect x="46" y="32" width="9" height="9" rx="2.5" fill="#EFF6FF" stroke="#BFDBFE" stroke-width="1"/>
  <path d="M48.5 36.5L50.5 38.5L53 34.5" stroke="#2563EB" stroke-width="1.2" stroke-linecap="round" stroke-linejoin="round"/>
  <line x1="60" y1="36.5" x2="94" y2="36.5" stroke="#E2E8F0" stroke-width="2.5" stroke-linecap="round"/>

  <!-- Checklist Row 2 -->
  <rect x="46" y="47" width="9" height="9" rx="2.5" fill="#F8FAFC" stroke="#E2E8F0" stroke-width="1"/>
  <line x1="60" y1="51.5" x2="88" y2="51.5" stroke="#E2E8F0" stroke-width="2.5" stroke-linecap="round"/>

  <!-- Checklist Row 3 -->
  <rect x="46" y="62" width="9" height="9" rx="2.5" fill="#F8FAFC" stroke="#E2E8F0" stroke-width="1"/>
  <line x1="60" y1="66.5" x2="82" y2="66.5" stroke="#E2E8F0" stroke-width="2.5" stroke-linecap="round"/>

  <!-- Magnifying Glass Accent -->
  <circle cx="95" cy="65" r="14" fill="#FFFFFF" stroke="#2563EB" stroke-width="2.5"/>
  <path d="M91 65L94 68L99 62" stroke="#2563EB" stroke-width="2" stroke-linecap="round" stroke-linejoin="round"/>
  <line x1="105" y1="75" x2="114" y2="84" stroke="#2563EB" stroke-width="2.5" stroke-linecap="round"/>
</svg>
