<svg width="24" height="24" viewBox="0 0 24 24" fill="none" xmlns="http://www.w3.org/2000/svg">
  <path d="M4 6C4 4.34315 7.58172 3 12 3C16.4183 3 20 4.34315 20 6M4 6V10C4 11.6569 7.58172 13 12 13C16.4183 13 20 11.6569 20 10V6M4 6C4 7.65685 7.58172 9 12 9C16.4183 9 20 7.65685 20 6M4 10V14C4 15.6569 7.58172 17 12 17C16.4183 17 20 15.6569 20 14V10M4 14V18C4 19.6569 7.58172 21 12 21C16.4183 21 20 19.6569 20 18V14" stroke="#2563EB" stroke-width="1.8" stroke-linecap="round" stroke-linejoin="round"/>
</svg>
